<?xml version="1.0" encoding="utf-8"?>
<!-- Uploaded to: SVG Repo, www.svgrepo.com, Generator: SVG Repo Mixer Tools -->
<svg width="800px" height="800px" viewBox="0 0 20 20" xmlns="http://www.w3.org/2000/svg">
  <g id="jet-plane-right" transform="translate(-2 -2)">
    <path id="secondary" fill="#2ca9bc" d="M9.37,17.46a1,1,0,0,0,1.42,0L18.7,9.55A7.86,7.86,0,0,0,21,4a1,1,0,0,0-1-1,7.86,7.86,0,0,0-5.55,2.3L6.54,13.21a1,1,0,0,0,0,1.42Z"/>
    <path id="primary" d="M11.68,16.93,15.75,21l1.79-1.79a1,1,0,0,0,.29-.8l-.65-7.11" fill="none" stroke="#000000" stroke-linecap="round" stroke-linejoin="round" stroke-width="2"/>
    <path id="primary-2" data-name="primary" d="M12.75,6.82,5.59,6.17a1,1,0,0,0-.8.29L3,8.25l4.09,4.09" fill="none" stroke="#000000" stroke-linecap="round" stroke-linejoin="round" stroke-width="2"/>
    <path id="primary-3" data-name="primary" d="M17.87,16l1.42-1.41M9.37,4.71,8,6.13M9.37,17.46a1,1,0,0,0,1.42,0L18.7,9.55A7.86,7.86,0,0,0,21,4a1,1,0,0,0-1-1,7.86,7.86,0,0,0-5.55,2.3L6.54,13.21a1,1,0,0,0,0,1.42Z" fill="none" stroke="#000000" stroke-linecap="round" stroke-linejoin="round" stroke-width="2"/>
  </g>
</svg>